<svg width="32" height="33" viewBox="0 0 32 33" fill="none" xmlns="http://www.w3.org/2000/svg">
<path opacity="0.2" d="M16 28.8574C22.6274 28.8574 28 23.4848 28 16.8574C28 10.23 22.6274 4.85742 16 4.85742C9.37258 4.85742 4 10.23 4 16.8574C4 23.4848 9.37258 28.8574 16 28.8574Z" fill="white"/>
<path d="M16 28.8574C22.6274 28.8574 28 23.4848 28 16.8574C28 10.23 22.6274 4.85742 16 4.85742C9.37258 4.85742 4 10.23 4 16.8574C4 23.4848 9.37258 28.8574 16 28.8574Z" stroke="white" stroke-width="2" stroke-linecap="round" stroke-linejoin="round"/>
<path d="M21 11.8574H19C18.2044 11.8574 17.4413 12.1735 16.8787 12.7361C16.3161 13.2987 16 14.0618 16 14.8574V28.8574" stroke="white" stroke-width="2" stroke-linecap="round" stroke-linejoin="round"/>
<path d="M12 18.8574H20" stroke="white" stroke-width="2" stroke-linecap="round" stroke-linejoin="round"/>
</svg>
