<svg width="32" height="33" viewBox="0 0 32 33" fill="none" xmlns="http://www.w3.org/2000/svg">
<path opacity="0.2" d="M21.5 5.35742H10.5C9.71207 5.35742 8.93185 5.51261 8.2039 5.81414C7.47594 6.11567 6.81451 6.55762 6.25735 7.11478C5.7002 7.67193 5.25825 8.33336 4.95672 9.06132C4.65519 9.78927 4.5 10.5695 4.5 11.3574V22.3574C4.5 23.1454 4.65519 23.9256 4.95672 24.6535C5.25825 25.3815 5.7002 26.0429 6.25735 26.6001C6.81451 27.1572 7.47594 27.5992 8.2039 27.9007C8.93185 28.2022 9.71207 28.3574 10.5 28.3574H21.5C22.2879 28.3574 23.0681 28.2022 23.7961 27.9007C24.5241 27.5992 25.1855 27.1572 25.7426 26.6001C26.2998 26.0429 26.7418 25.3815 27.0433 24.6535C27.3448 23.9256 27.5 23.1454 27.5 22.3574V11.3574C27.5 10.5695 27.3448 9.78927 27.0433 9.06132C26.7418 8.33336 26.2998 7.67193 25.7426 7.11478C25.1855 6.55762 24.5241 6.11567 23.7961 5.81414C23.0681 5.51261 22.2879 5.35742 21.5 5.35742ZM16 21.8574C15.0111 21.8574 14.0444 21.5642 13.2221 21.0148C12.3999 20.4654 11.759 19.6845 11.3806 18.7708C11.0022 17.8572 10.9031 16.8519 11.0961 15.882C11.289 14.9121 11.7652 14.0212 12.4645 13.3219C13.1637 12.6226 14.0546 12.1464 15.0245 11.9535C15.9945 11.7606 16.9998 11.8596 17.9134 12.238C18.827 12.6165 19.6079 13.2573 20.1573 14.0796C20.7068 14.9018 21 15.8685 21 16.8574C21 18.1835 20.4732 19.4553 19.5355 20.393C18.5978 21.3306 17.3261 21.8574 16 21.8574Z" fill="white"/>
<path d="M16 21.8574C18.7614 21.8574 21 19.6188 21 16.8574C21 14.096 18.7614 11.8574 16 11.8574C13.2386 11.8574 11 14.096 11 16.8574C11 19.6188 13.2386 21.8574 16 21.8574Z" stroke="white" stroke-width="2" stroke-miterlimit="10"/>
<path d="M21.5 5.35742H10.5C7.18629 5.35742 4.5 8.04371 4.5 11.3574V22.3574C4.5 25.6711 7.18629 28.3574 10.5 28.3574H21.5C24.8137 28.3574 27.5 25.6711 27.5 22.3574V11.3574C27.5 8.04371 24.8137 5.35742 21.5 5.35742Z" stroke="white" stroke-width="2" stroke-linecap="round" stroke-linejoin="round"/>
<path d="M22.5 11.8574C23.3284 11.8574 24 11.1858 24 10.3574C24 9.52899 23.3284 8.85742 22.5 8.85742C21.6716 8.85742 21 9.52899 21 10.3574C21 11.1858 21.6716 11.8574 22.5 11.8574Z" fill="white"/>
</svg>
