<svg width="32" height="33" viewBox="0 0 32 33" fill="none" xmlns="http://www.w3.org/2000/svg">
<path opacity="0.2" d="M26.5 5.35742H5.5C4.94772 5.35742 4.5 5.80514 4.5 6.35742V27.3574C4.5 27.9097 4.94772 28.3574 5.5 28.3574H26.5C27.0523 28.3574 27.5 27.9097 27.5 27.3574V6.35742C27.5 5.80514 27.0523 5.35742 26.5 5.35742Z" fill="white"/>
<path d="M26.5 5.35742H5.5C4.94772 5.35742 4.5 5.80514 4.5 6.35742V27.3574C4.5 27.9097 4.94772 28.3574 5.5 28.3574H26.5C27.0523 28.3574 27.5 27.9097 27.5 27.3574V6.35742C27.5 5.80514 27.0523 5.35742 26.5 5.35742Z" stroke="white" stroke-width="2" stroke-linecap="round" stroke-linejoin="round"/>
<path d="M15 14.8574V22.8574" stroke="white" stroke-width="2" stroke-linecap="round" stroke-linejoin="round"/>
<path d="M11 14.8574V22.8574" stroke="white" stroke-width="2" stroke-linecap="round" stroke-linejoin="round"/>
<path d="M15 18.3574C15 17.4292 15.3687 16.5389 16.0251 15.8825C16.6815 15.2262 17.5717 14.8574 18.5 14.8574C19.4283 14.8574 20.3185 15.2262 20.9749 15.8825C21.6313 16.5389 22 17.4292 22 18.3574V22.8574" stroke="white" stroke-width="2" stroke-linecap="round" stroke-linejoin="round"/>
<path d="M11 12.3574C11.8284 12.3574 12.5 11.6858 12.5 10.8574C12.5 10.029 11.8284 9.35742 11 9.35742C10.1716 9.35742 9.5 10.029 9.5 10.8574C9.5 11.6858 10.1716 12.3574 11 12.3574Z" fill="white"/>
</svg>
