<svg width="32" height="33" viewBox="0 0 32 33" fill="none" xmlns="http://www.w3.org/2000/svg">
<path opacity="0.2" d="M15.9997 11.8578C15.9998 10.709 16.3954 9.59525 17.1201 8.70383C17.8447 7.8124 18.8542 7.19765 19.9788 6.96293C21.1033 6.7282 22.2744 6.88782 23.2951 7.41494C24.3159 7.94206 25.124 8.80454 25.5836 9.85738L29.9997 9.85743L25.9669 13.8902C25.7043 17.9465 23.9078 21.7507 20.9423 24.5305C17.9767 27.3103 14.0644 28.8573 9.9997 28.8574C5.9997 28.8574 4.9997 27.3574 4.9997 27.3574C4.9997 27.3574 8.9997 25.8574 10.9997 22.8574C10.9997 22.8574 2.9997 18.8574 4.9997 7.85743C4.9997 7.85743 9.9997 12.8574 15.998 13.8574L15.9997 11.8578Z" fill="white"/>
<path d="M15.9997 11.8578C15.9998 10.709 16.3954 9.59525 17.1201 8.70383C17.8447 7.8124 18.8542 7.19765 19.9788 6.96293C21.1033 6.7282 22.2744 6.88782 23.2951 7.41494C24.3159 7.94206 25.124 8.80454 25.5836 9.85738L29.9997 9.85743L25.9669 13.8902C25.7043 17.9465 23.9078 21.7507 20.9423 24.5305C17.9767 27.3103 14.0644 28.8573 9.9997 28.8574C5.9997 28.8574 4.9997 27.3574 4.9997 27.3574C4.9997 27.3574 8.9997 25.8574 10.9997 22.8574C10.9997 22.8574 2.9997 18.8574 4.9997 7.85743C4.9997 7.85743 9.9997 12.8574 15.998 13.8574L15.9997 11.8578Z" stroke="white" stroke-width="2" stroke-linecap="round" stroke-linejoin="round"/>
</svg>
