<svg width="32" height="33" viewBox="0 0 32 33" fill="none" xmlns="http://www.w3.org/2000/svg">
<path opacity="0.2" d="M28.3236 9.83407C28.2455 9.52775 28.0956 9.24444 27.8862 9.00762C27.6768 8.77079 27.414 8.58727 27.1195 8.47226C22.9349 6.86416 16 6.90832 16 6.90832C16 6.90832 9.06519 6.86416 4.8805 8.47226C4.58605 8.58728 4.32324 8.7708 4.11385 9.00761C3.90445 9.24443 3.75449 9.52773 3.6764 9.83405C3.38428 10.9557 3 13.1379 3 16.8574C3 20.5768 3.38428 22.7591 3.67639 23.8807C3.75448 24.187 3.90443 24.4703 4.11383 24.7072C4.32323 24.944 4.58604 25.1275 4.8805 25.2425C9.06512 26.8506 16 26.8065 16 26.8065C16 26.8065 22.9348 26.8506 27.1195 25.2425C27.414 25.1275 27.6768 24.944 27.8862 24.7072C28.0956 24.4704 28.2455 24.1871 28.3236 23.8807C28.6157 22.7591 29 20.5768 29 16.8574C29 13.138 28.6157 10.9557 28.3236 9.83407ZM14 20.8574V12.8574L20 16.8574L14 20.8574Z" fill="white"/>
<path d="M20 16.8574L14 12.8574V20.8574L20 16.8574Z" stroke="white" stroke-width="2" stroke-linecap="round" stroke-linejoin="round"/>
<path d="M3 16.8574C3 20.5768 3.38427 22.7591 3.67638 23.8807C3.75447 24.187 3.90442 24.4703 4.11382 24.7072C4.32322 24.944 4.58603 25.1275 4.88049 25.2425C9.0651 26.8506 16 26.8064 16 26.8064C16 26.8064 22.9348 26.8506 27.1195 25.2425C27.4139 25.1275 27.6767 24.944 27.8861 24.7072C28.0955 24.4704 28.2455 24.1871 28.3236 23.8807C28.6157 22.7591 29 20.5768 29 16.8574C29 13.1379 28.6157 10.9557 28.3236 9.83406C28.2455 9.52773 28.0956 9.24443 27.8862 9.00761C27.6768 8.77078 27.414 8.58727 27.1195 8.47226C22.9349 6.86417 16 6.90832 16 6.90832C16 6.90832 9.06518 6.86417 4.88053 8.47224C4.58607 8.58725 4.32325 8.77077 4.11385 9.00759C3.90446 9.2444 3.7545 9.52771 3.67641 9.83403C3.38428 10.9556 3 13.1379 3 16.8574Z" stroke="white" stroke-width="2" stroke-linecap="round" stroke-linejoin="round"/>
</svg>
