<svg width="21" height="20" viewBox="0 0 21 20" fill="none" xmlns="http://www.w3.org/2000/svg">
<path fill-rule="evenodd" clip-rule="evenodd" d="M16.0886 5.58922C16.414 5.26378 16.414 4.73614 16.0886 4.4107C15.7632 4.08527 15.2355 4.08527 14.9101 4.4107L10.4993 8.82145L6.0886 4.4107C5.76317 4.08527 5.23553 4.08527 4.91009 4.4107C4.58466 4.73614 4.58466 5.26378 4.91009 5.58922L9.32084 9.99996L4.91009 14.4107C4.58466 14.7361 4.58466 15.2638 4.91009 15.5892C5.23553 15.9147 5.76317 15.9147 6.0886 15.5892L10.4993 11.1785L14.9101 15.5892C15.2355 15.9147 15.7632 15.9147 16.0886 15.5892C16.414 15.2638 16.414 14.7361 16.0886 14.4107L11.6779 9.99996L16.0886 5.58922Z" fill="#FF0C1A"/>
</svg>
