<svg width="24" height="24" viewBox="0 0 24 24" fill="none" xmlns="http://www.w3.org/2000/svg">
<path d="M12 24C18.6274 24 24 18.6274 24 12C24 5.37258 18.6274 0 12 0C5.37258 0 0 5.37258 0 12C0 18.6274 5.37258 24 12 24Z" fill="#287BFF"/>
<path d="M13.5833 10.3699L13.0772 11.4671H6.07227L6.47217 10.3699H13.5833ZM12.6296 12.5324L12.1133 13.6402H6.07227L6.47217 12.5324H12.6296ZM14.8833 7.47727L14.2541 8.82493C14.0516 8.65176 13.8342 8.49675 13.6045 8.36167C13.3662 8.22146 13.1123 8.10974 12.8479 8.02879C12.5666 7.94356 12.2739 7.90133 11.98 7.90354C11.4387 7.89534 10.9081 8.05542 10.4617 8.36167C9.9867 8.70715 9.62294 9.18381 9.41505 9.73312C9.14058 10.4582 9.01118 11.2301 9.03418 12.0051C9.01095 12.7791 9.14037 13.5501 9.41505 14.2741C9.62289 14.8221 9.98676 15.2971 10.4617 15.6404C10.9088 15.9451 11.439 16.1042 11.98 16.096C12.2764 16.0984 12.5716 16.0571 12.856 15.9733C13.1167 15.8966 13.3671 15.7884 13.6016 15.6511C13.8157 15.5261 14.0197 15.3845 14.2117 15.2277L14.8562 16.5699C14.4761 16.9132 14.0303 17.1761 13.5459 17.3426C13.0425 17.5177 12.513 17.606 11.98 17.6037C11.1409 17.6188 10.3165 17.3832 9.61209 16.927C8.90178 16.4488 8.34134 15.7793 7.9956 14.9959C7.58358 14.0539 7.38355 13.0329 7.40966 12.0051C7.38345 10.9746 7.58346 9.95097 7.9956 9.00617C8.34077 8.22178 8.90126 7.55132 9.61205 7.07258C10.3165 6.61664 11.141 6.38114 11.98 6.39619C12.5217 6.39141 13.0596 6.48612 13.5671 6.67561C14.0518 6.85882 14.4981 7.13067 14.8833 7.47724V7.47727Z" fill="white"/>
</svg>
