<svg width="32" height="32" viewBox="0 0 32 32" fill="none" xmlns="http://www.w3.org/2000/svg">
<path d="M6.33594 23.1153C7.43434 20.9049 8.00421 18.4695 8.00059 16.0012C7.99945 14.8017 8.26856 13.6174 8.78791 12.5362C9.30727 11.455 10.0635 10.5047 11.0005 9.75586" stroke="#287BFF" stroke-width="2" stroke-linecap="round" stroke-linejoin="round"/>
<path d="M16.0009 16.001C16.0072 20.0671 14.9756 24.0675 13.0039 27.6235" stroke="#287BFF" stroke-width="2" stroke-linecap="round" stroke-linejoin="round"/>
<path d="M12.001 16.001C12.001 14.9401 12.4224 13.9227 13.1725 13.1725C13.9227 12.4224 14.9401 12.001 16.001 12.001C17.0618 12.001 18.0793 12.4224 18.8294 13.1725C19.5795 13.9227 20.001 14.9401 20.001 16.001C20.0068 20.1239 19.0986 24.1969 17.3416 27.9268" stroke="#287BFF" stroke-width="2" stroke-linecap="round" stroke-linejoin="round"/>
<path d="M27.3211 23.001C27.7746 20.6953 28.0024 18.3509 28.0012 16.001C28.0012 12.8184 26.7369 9.76613 24.4865 7.5157C22.236 5.26526 19.1838 4.00098 16.0012 4.00098C12.8186 4.00098 9.76635 5.26526 7.51591 7.5157C5.26548 9.76613 4.00119 12.8184 4.00119 16.001C4.00269 17.3634 3.77176 18.7162 3.31836 20.001" stroke="#287BFF" stroke-width="2" stroke-linecap="round" stroke-linejoin="round"/>
<path d="M11.6003 20.001C11.1734 22.1037 10.4087 24.1234 9.33594 25.9816" stroke="#287BFF" stroke-width="2" stroke-linecap="round" stroke-linejoin="round"/>
<path d="M15.001 8.06287C16.127 7.92204 17.27 8.02218 18.3544 8.35663C19.4387 8.69109 20.4396 9.25223 21.2906 10.0029C22.1417 10.7535 22.8234 11.6764 23.2907 12.7105C23.758 13.7446 24.0001 14.8662 24.001 16.001C24.0013 17.3381 23.9186 18.674 23.7534 20.0009" stroke="#287BFF" stroke-width="2" stroke-linecap="round" stroke-linejoin="round"/>
<path d="M22.9924 24.001C22.8019 24.7408 22.5861 25.47 22.3447 26.1885" stroke="#287BFF" stroke-width="2" stroke-linecap="round" stroke-linejoin="round"/>
</svg>
