<svg width="32" height="32" viewBox="0 0 32 32" fill="none" xmlns="http://www.w3.org/2000/svg">
<rect width="32" height="32" rx="6" fill="#287BFF"/>
<path d="M16 25C20.9706 25 25 20.9706 25 16C25 11.0294 20.9706 7 16 7C11.0294 7 7 11.0294 7 16C7 20.9706 11.0294 25 16 25Z" stroke="white" stroke-width="1.5" stroke-linecap="round" stroke-linejoin="round"/>
<path d="M15.25 15.25H16.0001L16 20.5H16.75" stroke="white" stroke-width="1.5" stroke-linecap="round" stroke-linejoin="round"/>
<path d="M15.8125 12.8125C16.3303 12.8125 16.75 12.3928 16.75 11.875C16.75 11.3572 16.3303 10.9375 15.8125 10.9375C15.2947 10.9375 14.875 11.3572 14.875 11.875C14.875 12.3928 15.2947 12.8125 15.8125 12.8125Z" fill="white"/>
</svg>
