<svg width="48" height="48" viewBox="0 0 48 48" fill="none" xmlns="http://www.w3.org/2000/svg">
<path opacity="0.2" d="M24 4.5C20.0218 4.50001 16.2065 6.08037 13.3934 8.89341C10.5804 11.7065 9.00001 15.5218 9 19.5C9 33 24 43.5 24 43.5C24 43.5 39 33 39 19.5C39 15.5218 37.4196 11.7065 34.6066 8.89341C31.7935 6.08037 27.9782 4.50001 24 4.5ZM24 25.5C22.8133 25.5 21.6533 25.1481 20.6666 24.4888C19.6799 23.8295 18.9108 22.8925 18.4567 21.7961C18.0026 20.6997 17.8838 19.4933 18.1153 18.3295C18.3468 17.1656 18.9182 16.0965 19.7574 15.2574C20.5965 14.4182 21.6656 13.8468 22.8295 13.6153C23.9933 13.3838 25.1997 13.5026 26.2961 13.9567C27.3925 14.4108 28.3295 15.1799 28.9888 16.1666C29.6481 17.1533 30 18.3133 30 19.5C30 21.0913 29.3678 22.6174 28.2426 23.7426C27.1174 24.8678 25.5913 25.5 24 25.5Z" fill="#287BFF"/>
<path d="M24 25.5C27.3137 25.5 30 22.8137 30 19.5C30 16.1863 27.3137 13.5 24 13.5C20.6863 13.5 18 16.1863 18 19.5C18 22.8137 20.6863 25.5 24 25.5Z" stroke="#287BFF" stroke-width="2" stroke-linecap="round" stroke-linejoin="round"/>
<path d="M39 19.5C39 33 24 43.5 24 43.5C24 43.5 9 33 9 19.5C9 15.5218 10.5804 11.7064 13.3934 8.8934C16.2064 6.08035 20.0218 4.5 24 4.5C27.9782 4.5 31.7936 6.08035 34.6066 8.8934C37.4196 11.7064 39 15.5218 39 19.5V19.5Z" stroke="#287BFF" stroke-width="2" stroke-linecap="round" stroke-linejoin="round"/>
</svg>
