<svg width="48" height="48" viewBox="0 0 48 48" fill="none" xmlns="http://www.w3.org/2000/svg">
<path d="M23.9998 42.8054C13.9873 42.8054 5.84082 34.6579 5.84082 24.6444C5.84082 14.6309 13.9873 6.48543 23.9998 6.48543C26.8712 6.47681 29.7029 7.15658 32.2574 8.46777C32.5028 8.59328 32.6883 8.81113 32.773 9.07339C32.8578 9.33565 32.8349 9.62083 32.7094 9.86621C32.5839 10.1116 32.366 10.2971 32.1038 10.3818C31.8415 10.4666 31.5563 10.4437 31.311 10.3182C29.0491 9.15737 26.5421 8.55562 23.9998 8.56335C15.1322 8.56335 7.91874 15.7769 7.91874 24.6444C7.91874 33.5119 15.1322 40.7275 23.9998 40.7275C32.8673 40.7275 40.0808 33.5119 40.0808 24.6444C40.0815 23.2619 39.9045 21.8851 39.5541 20.5478C39.4902 20.2834 39.5326 20.0045 39.6721 19.771C39.8115 19.5375 40.037 19.3681 40.3 19.299C40.5631 19.2299 40.8427 19.2667 41.079 19.4015C41.3152 19.5363 41.4891 19.7583 41.5634 20.02C41.9589 21.53 42.1586 23.0845 42.1577 24.6454C42.1587 34.6579 34.0133 42.8054 23.9998 42.8054Z" fill="#287BFF"/>
<path d="M23.441 29.0243C23.1654 29.0242 22.9012 28.9147 22.7064 28.7199L17.4441 23.4575C17.2668 23.2598 17.172 23.0018 17.1791 22.7364C17.1861 22.471 17.2945 22.2184 17.482 22.0304C17.6694 21.8424 17.9218 21.7333 18.1871 21.7255C18.4525 21.7177 18.7108 21.8118 18.909 21.9884L23.4368 26.5162L39.8472 10.11C40.0431 9.92075 40.3056 9.81603 40.578 9.8184C40.8504 9.82077 41.111 9.93003 41.3036 10.1227C41.4963 10.3153 41.6055 10.5759 41.6079 10.8483C41.6103 11.1207 41.5055 11.3831 41.3163 11.5791L24.1734 28.7219C23.9788 28.9155 23.7155 29.0242 23.441 29.0243Z" fill="#287BFF"/>
</svg>
