<svg width="48" height="48" viewBox="0 0 48 48" fill="none" xmlns="http://www.w3.org/2000/svg">
<path d="M29.1325 18.9845C25.783 17.8354 22.1447 17.8437 18.8004 19.008C18.5573 19.0948 18.341 19.2434 18.1728 19.4391C18.0046 19.6349 17.8902 19.8711 17.841 20.1245L16.7351 25.6572C16.6862 25.9019 16.577 26.1305 16.4174 26.3223C16.2579 26.5142 16.053 26.6632 15.8213 26.7559L6.95017 30.3043C6.64962 30.4256 6.31777 30.446 6.00463 30.3624C5.69149 30.2787 5.41401 30.0955 5.21402 29.8405C3.87445 28.1084 3.21217 25.9474 3.35118 23.7621C3.49019 21.5768 4.42095 19.5172 5.9692 17.9688C10.7514 13.1866 17.2374 10.5 24.0004 10.5C30.7634 10.5 37.2495 13.1866 42.0316 17.9688C43.5799 19.5172 44.5107 21.5768 44.6497 23.7621C44.7887 25.9474 44.1264 28.1084 42.7868 29.8405C42.5868 30.0955 42.3094 30.2787 41.9962 30.3624C41.6831 30.446 41.3512 30.4256 41.0507 30.3043L32.1718 26.7528C31.9422 26.6609 31.7388 26.5137 31.5798 26.3242C31.4208 26.1347 31.3112 25.9088 31.2606 25.6667L30.0961 20.0908C30.0449 19.8388 29.9292 19.6044 29.7603 19.4105C29.5914 19.2166 29.3751 19.0698 29.1325 18.9845Z" stroke="#287BFF" stroke-width="1.5" stroke-linecap="round" stroke-linejoin="round"/>
<path d="M7.5 37.5H40.5" stroke="#287BFF" stroke-width="1.5" stroke-linecap="round" stroke-linejoin="round"/>
</svg>
