<svg width="24" height="24" viewBox="0 0 24 24" fill="none" xmlns="http://www.w3.org/2000/svg">
<path fill-rule="evenodd" clip-rule="evenodd" d="M12.1667 2C10.9629 2 9.77089 2.2371 8.65874 2.69777C7.54658 3.15844 6.53606 3.83365 5.68485 4.68485C4.83365 5.53606 4.15844 6.54658 3.69777 7.65874C3.2371 8.77089 3 9.96288 3 11.1667V14.5C3 15.8261 3.52678 17.0979 4.46447 18.0355C5.40215 18.9732 6.67392 19.5 8 19.5C8.22101 19.5 8.43298 19.4122 8.58926 19.2559C8.74554 19.0996 8.83333 18.8877 8.83333 18.6667L8.83333 10.3333C8.83333 10.1123 8.74554 9.90036 8.58926 9.74408C8.43298 9.5878 8.22101 9.5 8 9.5C6.77182 9.5 5.59024 9.95187 4.67751 10.7635C4.72311 9.9164 4.91217 9.08213 5.23757 8.29654C5.61448 7.3866 6.16693 6.55981 6.86337 5.86337C7.55981 5.16693 8.3866 4.61448 9.29654 4.23757C10.2065 3.86066 11.1818 3.66667 12.1667 3.66667C13.1516 3.66667 14.1269 3.86066 15.0368 4.23757C15.9467 4.61448 16.7735 5.16693 17.47 5.86337C18.1664 6.5598 18.7189 7.3866 19.0958 8.29654C19.4211 9.08194 19.6101 9.91601 19.6558 10.7629C18.7432 9.95164 17.5619 9.5 16.334 9.5C16.113 9.5 15.901 9.5878 15.7447 9.74408C15.5884 9.90036 15.5007 10.1123 15.5007 10.3333L15.5007 18.6667C15.5007 18.8877 15.5884 19.0996 15.7447 19.2559C15.901 19.4122 16.113 19.5 16.334 19.5C17.1125 19.5 17.8723 19.3184 18.5567 18.9788C18.1413 19.7833 17.3019 20.3333 16.334 20.3333H13.834V22H16.334C18.6352 22 20.5007 20.1345 20.5007 17.8333V17.2639C21.0401 16.4506 21.334 15.4905 21.334 14.5C21.334 14.4731 21.3338 14.4463 21.3333 14.4194V11.1667C21.3333 9.96288 21.0962 8.77089 20.6356 7.65874C20.1749 6.54658 19.4997 5.53606 18.6485 4.68485C17.7973 3.83365 16.7868 3.15844 15.6746 2.69777C14.5624 2.2371 13.3705 2 12.1667 2ZM18.691 12.143C19.3006 12.7526 19.6497 13.5739 19.6667 14.4341V14.5L19.6673 14.5C19.6673 15.3841 19.3161 16.2319 18.691 16.857C18.2664 17.2816 17.739 17.5799 17.1673 17.7275V11.2725C17.739 11.4201 18.2664 11.7184 18.691 12.143ZM4.66667 14.4982V14.5C4.66667 15.3841 5.01786 16.2319 5.64298 16.857C6.0676 17.2816 6.59498 17.5799 7.16667 17.7275L7.16667 11.2725C6.59498 11.4201 6.0676 11.7184 5.64298 12.143C5.01828 12.7677 4.66714 13.6148 4.66667 14.4982Z" fill="#287BFF"/>
</svg>
