<svg width="19" height="20" viewBox="0 0 19 20" fill="none" xmlns="http://www.w3.org/2000/svg">
<path d="M14.5 19.9995H4.5C3.39543 19.9995 2.5 19.1041 2.5 17.9995V4.99951H0.5V2.99951H4.5V1.99951C4.5 0.894942 5.39543 -0.000488281 6.5 -0.000488281H12.5C13.6046 -0.000488281 14.5 0.894942 14.5 1.99951V2.99951H18.5V4.99951H16.5V17.9995C16.5 19.1041 15.6046 19.9995 14.5 19.9995ZM4.5 4.99951V17.9995H14.5V4.99951H4.5ZM6.5 1.99951V2.99951H12.5V1.99951H6.5ZM12.5 15.9995H10.5V6.99951H12.5V15.9995ZM8.5 15.9995H6.5V6.99951H8.5V15.9995Z" fill="#287BFF"/>
</svg>
