<svg width="32" height="32" viewBox="0 0 32 32" fill="none" xmlns="http://www.w3.org/2000/svg">
<path d="M25 17H31" stroke="white" stroke-width="2" stroke-linecap="round" stroke-linejoin="round"/>
<path d="M28 14V20" stroke="white" stroke-width="2" stroke-linecap="round" stroke-linejoin="round"/>
<path d="M13.5 20C17.6421 20 21 16.6421 21 12.5C21 8.35786 17.6421 5 13.5 5C9.35786 5 6 8.35786 6 12.5C6 16.6421 9.35786 20 13.5 20Z" stroke="white" stroke-width="2" stroke-miterlimit="10"/>
<path d="M2.77637 24.9997C4.09054 23.434 5.73161 22.1751 7.58428 21.3113C9.43696 20.4476 11.4563 20 13.5004 20C15.5446 20 17.5639 20.4476 19.4166 21.3114C21.2692 22.1751 22.9103 23.4341 24.2244 24.9998" stroke="white" stroke-width="2" stroke-linecap="round" stroke-linejoin="round"/>
</svg>
