<svg width="24" height="24" viewBox="0 0 24 24" fill="none" xmlns="http://www.w3.org/2000/svg">
<path d="M12 12C9.23858 12 7 9.76142 7 7C7 4.23858 9.23858 2 12 2C14.7614 2 17 4.23858 17 7C16.9967 9.76005 14.7601 11.9967 12 12ZM12 4C10.3431 4 9 5.34315 9 7C9 8.65685 10.3431 10 12 10C13.6569 10 15 8.65685 15 7C15 5.34315 13.6569 4 12 4Z" fill="white"/>
<path fill-rule="evenodd" clip-rule="evenodd" d="M15.6667 14.75H8.33333C6.35431 14.75 4.75 16.3543 4.75 18.3333C4.75 18.8396 5.16041 19.25 5.66667 19.25H18.3333C18.8396 19.25 19.25 18.8396 19.25 18.3333C19.25 16.3543 17.6457 14.75 15.6667 14.75ZM8.33333 13C5.38781 13 3 15.3878 3 18.3333C3 19.8061 4.19391 21 5.66667 21H18.3333C19.8061 21 21 19.8061 21 18.3333C21 15.3878 18.6122 13 15.6667 13H8.33333Z" fill="white"/>
</svg>
