<svg width="72" height="80" viewBox="0 0 72 80" fill="none" xmlns="http://www.w3.org/2000/svg">
<path d="M72 28.2755C72 18.5371 69.2123 8.92686 63.9733 0.427122L63.9252 0.38441C63.8291 0.256273 63.6849 0.128137 63.4927 0.0854245C63.4446 0.0854245 63.3965 0.0427122 63.3004 0.0427122C63.2523 0.0427122 63.1562 0.0427122 63.1081 0.0427122H63.0601C63.012 0.0427122 62.964 0.0427122 62.964 0.0854245C62.964 0.0854245 62.9159 0.0854245 62.9159 0.128137C62.8678 0.128137 62.8678 0.170849 62.8198 0.170849L62.7717 0.213561L62.7236 0.256273C62.4352 0.38441 62.1949 0.469834 61.9065 0.597971C61.6662 0.683396 61.474 0.76882 61.2336 0.896957C60.9453 1.02509 60.6088 1.19594 60.3204 1.32408C60.1282 1.4095 59.9359 1.49493 59.6956 1.62306C59.3591 1.79391 59.0227 1.96476 58.6862 2.13561C58.5421 2.22104 58.3498 2.30646 58.2056 2.39188C57.725 2.64816 57.2443 2.90443 56.7637 3.20342C56.6676 3.24613 56.5714 3.33155 56.4753 3.37427C56.0908 3.58783 55.7063 3.80139 55.3698 4.05766C55.1776 4.1858 55.0334 4.27122 54.8411 4.39936C54.5527 4.57021 54.2644 4.78377 53.976 4.95462C53.7837 5.08276 53.5915 5.21089 53.3992 5.33903C53.1589 5.50988 52.8705 5.68073 52.6302 5.89429C52.4379 6.02242 52.2457 6.19327 52.0534 6.32141C51.8131 6.49226 51.5728 6.66311 51.3324 6.87667C51.1402 7.04752 50.9479 7.17565 50.7557 7.3465C50.5154 7.51735 50.275 7.73091 50.0828 7.90176C49.8905 8.07261 49.6983 8.24346 49.506 8.3716C49.2657 8.54245 49.0734 8.75601 48.8331 8.92686C48.6409 9.0977 48.4486 9.26855 48.3044 9.4394C48.1121 9.65296 47.8718 9.82381 47.6796 10.0374C47.4873 10.2082 47.3431 10.3791 47.1509 10.5499C46.9586 10.7635 46.7664 10.9343 46.5741 11.1479C46.3818 11.3187 46.2377 11.5323 46.0454 11.7031C45.8531 11.9167 45.6609 12.1303 45.4686 12.3438C45.3244 12.5147 45.1322 12.7282 44.988 12.8991C44.7957 13.1127 44.6035 13.3262 44.4593 13.5398C44.3151 13.7533 44.1228 13.9242 43.9786 14.1377C43.7864 14.3513 43.6422 14.5649 43.4499 14.7784C43.3057 14.992 43.1615 15.2056 43.0174 15.3764C42.9212 15.5473 42.777 15.6754 42.6809 15.8462C42.4406 15.8035 42.2003 15.7608 42.008 15.7608C41.7677 15.7181 41.5274 15.6754 41.3351 15.6754C40.9506 15.6327 40.6142 15.59 40.2296 15.5473C40.0374 15.5473 39.7971 15.5045 39.6048 15.5045C39.1722 15.4618 38.7397 15.4618 38.3071 15.4191C38.1629 15.4191 38.0187 15.4191 37.8745 15.3764C36.721 15.3337 35.5194 15.3337 34.3658 15.3764C34.2216 15.3764 34.0774 15.3764 33.9332 15.4191C33.5007 15.4618 33.0681 15.4618 32.6355 15.5045C32.4433 15.5045 32.2029 15.5473 32.0107 15.5473C31.6262 15.59 31.2897 15.6327 30.9052 15.6754C30.6649 15.7181 30.4246 15.7608 30.2323 15.7608C29.992 15.8035 29.7517 15.8035 29.5113 15.8462C29.4152 15.6754 29.271 15.5473 29.1749 15.3764C29.0307 15.1628 28.8865 14.9493 28.6943 14.7784C28.502 14.5649 28.3578 14.3513 28.1656 14.1377C28.0214 13.9242 27.8291 13.7533 27.6849 13.5398C27.4927 13.3262 27.3004 13.1127 27.1562 12.8991C27.012 12.6855 26.8198 12.5147 26.6756 12.3011C26.4833 12.0876 26.2911 11.874 26.0988 11.6604C25.9065 11.4896 25.7624 11.276 25.5701 11.1052C25.3778 10.8916 25.1856 10.6781 24.9453 10.5072C24.753 10.3364 24.6088 10.1655 24.4166 9.95195C24.2243 9.73839 23.984 9.56754 23.7917 9.35398C23.5995 9.18313 23.4072 9.01228 23.215 8.84143C23.0227 8.62787 22.7824 8.45702 22.5421 8.28617C22.3498 8.11532 22.1575 7.94447 21.9653 7.77363C21.725 7.60278 21.5327 7.38921 21.2924 7.21837C21.1001 7.04752 20.9079 6.91938 20.7156 6.74853C20.4753 6.57768 20.235 6.40683 19.9947 6.19327C19.8024 6.02242 19.6101 5.89429 19.3698 5.72344C19.1295 5.55259 18.8892 5.38174 18.6489 5.21089C18.4566 5.08276 18.2644 4.91191 18.024 4.78377C17.7837 4.61292 17.4953 4.44207 17.255 4.27122C17.0628 4.14309 16.8224 4.01495 16.6302 3.88681C16.3418 3.71596 16.1015 3.54511 15.8131 3.41698C15.6208 3.28884 15.3805 3.1607 15.1883 3.03257C14.8999 2.86172 14.6115 2.73358 14.3231 2.56273C14.1308 2.4346 13.8905 2.34917 13.6983 2.22104C13.4099 2.05019 13.1215 1.92205 12.785 1.7512C12.5928 1.66578 12.4005 1.53764 12.2083 1.45222C11.8718 1.28137 11.5354 1.15323 11.1989 0.982381C11.0067 0.896957 10.8625 0.811532 10.6702 0.726108C10.1415 0.512547 9.61282 0.256273 9.08411 0.0427122C9.03605 0.0427122 8.98798 0 8.93992 0H8.89186C8.84379 0 8.79573 0 8.79573 0C8.79573 0 8.79573 0 8.74766 0H8.6996C8.65154 0 8.60347 0 8.55541 0H8.50734C8.50734 0 8.50734 0 8.45928 0C8.41121 0 8.36315 0.0427122 8.31509 0.0427122C8.31509 0.0427122 8.31509 0.0427122 8.26702 0.0427122C8.21896 0.0854245 8.17089 0.128137 8.12283 0.170849C8.12283 0.170849 8.12283 0.213561 8.07477 0.213561C8.0267 0.256273 8.0267 0.298986 7.97864 0.298986C7.97864 0.298986 7.97864 0.298986 7.97864 0.341698C7.83445 0.597971 7.64219 0.896957 7.498 1.15323C7.35381 1.4095 7.16155 1.66578 7.01736 1.92205C6.87316 2.17832 6.72897 2.4346 6.58478 2.73358C6.44059 3.03257 6.2964 3.28884 6.10414 3.58783C5.95995 3.8441 5.86382 4.10037 5.71963 4.35665C5.57543 4.65563 5.43124 4.95462 5.28705 5.2536C5.19092 5.50988 5.04673 5.72344 4.9506 5.97971C4.80641 6.2787 4.66222 6.6204 4.51802 6.91938C4.4219 7.13294 4.32577 7.3465 4.22964 7.56006C4.08545 7.90176 3.94126 8.24346 3.79706 8.62787C3.70093 8.84143 3.65287 9.05499 3.55674 9.26855C3.41255 9.61025 3.26836 9.99466 3.12417 10.3364C3.02804 10.5499 2.97997 10.8062 2.88385 11.0198C2.73965 11.3615 2.64352 11.7459 2.49933 12.0876C2.45127 12.3011 2.35514 12.5147 2.30708 12.7282C2.21095 13.1127 2.06676 13.4971 1.97063 13.8388C1.92256 14.0523 1.8745 14.2232 1.82644 14.4367C1.73031 14.8211 1.58611 15.2056 1.48999 15.59C1.53805 15.8035 1.48999 16.0171 1.44192 16.1879C1.34579 16.6151 1.24967 16.9995 1.15354 17.4266C1.10547 17.6402 1.05741 17.811 1.05741 18.0246C0.961282 18.409 0.865154 18.7934 0.817089 19.1778C0.769025 19.3914 0.769025 19.5622 0.720961 19.7758C0.672897 20.1602 0.576769 20.5873 0.528705 20.9717C0.480641 21.2707 0.432577 21.527 0.432577 21.7832C0.384513 22.1249 0.336449 22.4666 0.288385 22.8083C0.24032 23.15 0.24032 23.4917 0.192256 23.8761C0.192256 24.1324 0.144192 24.3887 0.144192 24.645C0.0961282 25.0294 0.0961282 25.3711 0.0961282 25.7555C0.0961282 25.969 0.0480641 26.2253 0.0480641 26.4389C0 27.0368 0 27.6348 0 28.2755C0 29.1297 0 29.984 0.0480641 30.8809C0.0961282 31.7352 0.144192 32.5894 0.24032 33.4864C0.432577 35.1949 0.672897 36.9461 1.00935 38.6119C1.00935 38.6546 1.00935 38.6973 1.05741 38.74V38.8254C1.10547 38.9963 1.15354 39.2098 1.2016 39.3807C3.749 51.0411 10.2377 61.591 19.8985 69.9199C23.5033 73.0379 27.5407 75.7288 31.8184 78.0352C33.02 78.6759 34.3178 79.3166 35.6155 79.9146C35.7116 79.9573 35.8558 80 36 80C36.1442 80 36.2403 79.9573 36.3845 79.9146C37.5861 79.3593 38.8358 78.7613 40.1816 78.0352C44.5073 75.7288 48.4967 72.9952 52.1495 69.8772C61.8104 61.591 68.251 51.0411 70.7984 39.4234C70.7984 39.4234 70.7984 39.4234 70.7984 39.3807C70.8465 39.1671 70.8945 38.9535 70.9426 38.74V38.6973V38.6546C71.6636 35.2376 72 31.7352 72 28.2755ZM37.2016 64.3673C36.769 65.0507 36.3845 65.7341 36 66.4175C34.8465 64.3246 33.5487 62.3171 32.1549 60.3524C31.6742 59.7117 31.1936 59.071 30.713 58.4303C29.8478 57.3198 28.9346 56.252 27.9733 55.1842C27.012 54.1164 26.0507 53.134 24.9933 52.1089C24.4646 51.5964 23.9359 51.1265 23.4072 50.6567C22.8785 50.1869 22.3498 49.717 21.773 49.2472C17.3992 45.5739 12.4486 42.4132 7.11348 39.8505C6.44059 39.5515 5.76769 39.2098 5.09479 38.9108C4.4219 38.6119 3.749 38.3129 3.02804 38.0566H2.97997C2.97997 38.0566 2.93191 38.0566 2.93191 38.0139C2.97997 37.9285 2.97997 37.843 3.02804 37.7576C3.0761 37.5868 3.17223 37.4159 3.22029 37.2451C3.36449 37.1169 3.41255 36.9034 3.50868 36.7325C3.60481 36.5617 3.65287 36.3908 3.749 36.22C3.84513 36.0491 3.94126 35.8356 3.98932 35.6647C4.08545 35.4939 4.13351 35.323 4.22964 35.1522C4.32577 34.9813 4.4219 34.7678 4.51802 34.5969C4.61415 34.4261 4.71028 34.2552 4.80641 34.0844C4.90254 33.9135 4.99867 33.7427 5.09479 33.5291C5.19092 33.3582 5.28705 33.1874 5.38318 33.0166C5.47931 32.8457 5.6235 32.6749 5.71963 32.504C5.81575 32.3332 5.91188 32.1623 6.00801 32.0342C6.10414 31.8633 6.24833 31.6925 6.34446 31.5216C6.44059 31.3508 6.53672 31.2226 6.68091 31.0518C6.8251 30.8809 6.92123 30.7101 7.06542 30.5392C7.16155 30.3684 7.30574 30.2403 7.40187 30.0694C7.54606 29.8986 7.64219 29.7277 7.78638 29.5569C7.93057 29.4287 8.0267 29.2579 8.17089 29.1297C8.31509 28.9589 8.45928 28.788 8.60347 28.6599C8.74766 28.5318 8.84379 28.3609 8.98798 28.2328C9.13218 28.0619 9.27637 27.9338 9.42056 27.7629C9.56475 27.6348 9.66088 27.5067 9.80507 27.3358C9.94927 27.165 10.1415 27.0368 10.2857 26.866C10.4299 26.7379 10.5741 26.6097 10.6702 26.4816C10.8144 26.3107 11.0067 26.1826 11.1989 26.0117C11.3431 25.8836 11.4873 25.7555 11.5834 25.6273C11.7757 25.4565 11.968 25.3284 12.1602 25.1575C12.3044 25.0294 12.4005 24.9439 12.5447 24.8158C12.737 24.645 12.9773 24.4741 13.2176 24.3033C13.3138 24.2178 13.4579 24.1324 13.5541 24.047C13.8905 23.7907 14.227 23.5344 14.5634 23.3209C14.8037 23.15 15.0921 22.9792 15.3805 22.7656C15.4766 22.7229 15.5728 22.6375 15.6689 22.5948C15.8611 22.4666 16.0053 22.3812 16.1976 22.2531C16.2937 22.1676 16.4379 22.1249 16.534 22.0395C16.6782 21.9541 16.8705 21.8259 17.0147 21.7405C17.1589 21.6551 17.255 21.6124 17.3992 21.527C17.5434 21.4415 17.7356 21.3561 17.8798 21.2707C18.024 21.1853 18.1202 21.1426 18.2644 21.0571C18.4085 20.9717 18.6008 20.8863 18.745 20.8009C18.8892 20.7154 19.0334 20.6727 19.1295 20.5873C19.2737 20.5019 19.466 20.4164 19.6101 20.3737C19.7543 20.2883 19.8985 20.2456 20.0427 20.2029C20.1869 20.1175 20.3792 20.0747 20.5234 19.9893C20.6676 19.9466 20.8117 19.8612 20.9559 19.8185C21.1001 19.733 21.2924 19.6903 21.4366 19.6049C21.5808 19.5622 21.725 19.4768 21.8692 19.4341C22.0134 19.3914 22.2056 19.3059 22.3498 19.2632C22.494 19.2205 22.6382 19.1351 22.7824 19.0924C22.9266 19.0497 23.1188 18.9642 23.263 18.9215C23.4072 18.8788 23.5514 18.8361 23.6956 18.7507C23.8398 18.708 24.032 18.6225 24.1762 18.5798C24.3204 18.5371 24.4646 18.4944 24.6088 18.4517C24.753 18.409 24.9453 18.3663 25.0895 18.3235C25.2336 18.2808 25.3778 18.2381 25.522 18.1954C25.6662 18.1527 25.8585 18.11 26.0027 18.0673C26.1469 18.0246 26.2911 17.9818 26.4352 17.9391C26.5794 17.8964 26.7717 17.8537 26.9159 17.811C27.0601 17.7683 27.2043 17.7256 27.3965 17.6829C27.5888 17.6402 27.733 17.5974 27.9252 17.5547C28.0694 17.512 28.2136 17.512 28.4059 17.4693C28.4539 17.4693 28.5501 17.4266 28.5981 17.4266C28.6943 17.5547 28.7904 17.6829 28.8865 17.811C29.0307 18.0246 29.1268 18.1954 29.271 18.409C29.4152 18.6225 29.5594 18.8361 29.6555 19.0497C29.7517 19.2632 29.8959 19.4341 29.992 19.6476C30.1362 19.8612 30.2323 20.0747 30.3765 20.2883C30.4726 20.5019 30.6168 20.6727 30.713 20.8863C30.8091 21.0998 30.9533 21.3134 31.0494 21.5697C31.1455 21.7832 31.2417 21.9541 31.3378 22.1676C31.4339 22.3812 31.5781 22.6375 31.6742 22.851C31.7704 23.0646 31.8665 23.2355 31.9626 23.449C32.0587 23.6626 32.1549 23.9188 32.251 24.1324C32.3471 24.346 32.4433 24.5168 32.4913 24.7304C32.5874 24.9439 32.6836 25.2002 32.7797 25.4565C32.8758 25.67 32.9239 25.8836 33.02 26.0545C33.1162 26.3107 33.1642 26.5243 33.2603 26.7806C33.3084 26.9941 33.4045 27.2077 33.4526 27.3785C33.5487 27.6348 33.5968 27.8484 33.6929 28.1046C33.741 28.3182 33.8371 28.5318 33.8852 28.7026C33.9332 28.9589 34.0294 29.2152 34.0774 29.4287C34.1255 29.6423 34.1736 29.8558 34.2216 30.0267C34.2697 30.283 34.3178 30.5392 34.3658 30.7955C34.4139 31.0091 34.462 31.1799 34.51 31.3935C34.5581 31.6498 34.6061 31.906 34.6542 32.1623C34.7023 32.3759 34.7503 32.5467 34.7503 32.7603C34.7984 33.0165 34.8465 33.2728 34.8465 33.5718C34.8945 33.7854 34.8945 33.9562 34.9426 34.1698C34.9907 34.4688 34.9907 34.725 35.0387 35.024C35.0387 35.1949 35.0868 35.4084 35.0868 35.5793C35.1348 35.8783 35.1348 36.22 35.1348 36.519C35.1348 36.6898 35.1348 36.8179 35.1829 36.9888C35.1829 37.4586 35.231 37.9285 35.231 38.3983C35.231 38.8254 35.6155 39.1671 36.0961 39.1671C36.5768 39.1671 36.9613 38.8254 36.9613 38.3983C36.9613 37.9285 36.9613 37.4586 37.0093 36.9888C37.0093 36.8179 37.0093 36.6898 37.0574 36.519C37.0574 36.22 37.1055 35.8783 37.1055 35.5793C37.1055 35.4084 37.1535 35.1949 37.1535 35.024C37.2016 34.725 37.2016 34.4688 37.2497 34.1698C37.2497 33.9562 37.2977 33.7854 37.3458 33.5718C37.3939 33.3155 37.3939 33.0593 37.4419 32.7603C37.49 32.5467 37.49 32.3332 37.5381 32.1623C37.5861 31.906 37.6342 31.6498 37.6822 31.3935C37.7303 31.1799 37.7784 30.9664 37.8264 30.7528C37.8745 30.4965 37.9226 30.2403 37.9706 30.0267C38.0187 29.8131 38.0668 29.5996 38.1148 29.386C38.1629 29.1297 38.259 28.9162 38.3071 28.6599C38.3551 28.4463 38.4513 28.2328 38.4993 28.0192C38.5474 27.7629 38.6435 27.5494 38.6916 27.2931C38.7397 27.0796 38.8358 26.866 38.8838 26.6524C38.98 26.3962 39.028 26.1826 39.1242 25.9263C39.2203 25.7128 39.2684 25.4992 39.3645 25.2856C39.4606 25.0721 39.5567 24.8158 39.6529 24.6022C39.749 24.3887 39.8451 24.1751 39.8932 23.9616C39.9893 23.748 40.0854 23.4917 40.1816 23.2782C40.2777 23.0646 40.3738 22.851 40.47 22.6802C40.5661 22.4666 40.6622 22.2531 40.8064 21.9968C40.9025 21.7832 40.9987 21.6124 41.0948 21.3988C41.1909 21.1853 41.3351 20.9717 41.4312 20.7581C41.5274 20.5446 41.6716 20.3737 41.7677 20.1602C41.9119 19.9466 42.008 19.733 42.1522 19.5195C42.2483 19.3059 42.3925 19.1351 42.4887 18.9215C42.6328 18.708 42.729 18.4944 42.8732 18.2808C43.0174 18.0673 43.1135 17.8964 43.2577 17.6829C43.3538 17.5547 43.4499 17.4266 43.5461 17.2985C43.5941 17.2985 43.6903 17.3412 43.7383 17.3412C43.8825 17.3839 44.0267 17.3839 44.1709 17.4266C44.3632 17.4693 44.5073 17.512 44.6996 17.5547C44.8438 17.5974 44.988 17.6402 45.1322 17.6402C45.3244 17.6829 45.4686 17.7256 45.6609 17.7683C45.8051 17.811 45.9493 17.8537 46.0935 17.8964C46.2377 17.9391 46.4299 17.9818 46.5741 18.0246C46.7183 18.0673 46.8625 18.11 47.0067 18.1527C47.1509 18.1954 47.3431 18.2381 47.4873 18.3235C47.6315 18.3663 47.7757 18.409 47.9199 18.4517C48.0641 18.4944 48.2563 18.5798 48.4005 18.6225C48.5447 18.6652 48.6889 18.708 48.8331 18.7934C48.9773 18.8361 49.1696 18.9215 49.3138 18.9642C49.4579 19.0069 49.6021 19.0497 49.7463 19.1351C49.8905 19.1778 50.0828 19.2632 50.227 19.3059C50.3712 19.3486 50.5154 19.4341 50.6595 19.4768C50.8037 19.5622 50.996 19.6049 51.1402 19.6903C51.2844 19.733 51.4286 19.8185 51.5728 19.8612C51.717 19.9466 51.9092 19.9893 52.0534 20.0747C52.1976 20.1175 52.3418 20.2029 52.4379 20.2456C52.5821 20.331 52.7744 20.4164 52.9186 20.4592C53.0628 20.5446 53.2069 20.5873 53.3031 20.6727C53.4473 20.7581 53.6395 20.8436 53.7837 20.929C53.9279 21.0144 54.024 21.0571 54.1682 21.1426C54.3124 21.228 54.5047 21.3134 54.6489 21.3988C54.7931 21.4842 54.8892 21.527 55.0334 21.6124C55.1776 21.6978 55.3698 21.8259 55.514 21.9114C55.6101 21.9968 55.7543 22.0395 55.8505 22.1249C56.0427 22.2531 56.1869 22.3385 56.3792 22.4666C56.4753 22.5093 56.5714 22.5948 56.6676 22.6375C56.9079 22.8083 57.1963 22.9792 57.4366 23.15C57.773 23.4063 58.1095 23.6626 58.4459 23.8761C58.5421 23.9616 58.6862 24.047 58.7824 24.1324C59.0227 24.3033 59.215 24.4741 59.4553 24.645C59.5995 24.7304 59.6956 24.8585 59.8398 24.9439C60.032 25.1148 60.2243 25.2856 60.4166 25.4138C60.5607 25.5419 60.6569 25.6273 60.8011 25.7555C60.9933 25.9263 61.1375 26.0545 61.3298 26.2253C61.474 26.3534 61.5701 26.4816 61.7143 26.6097C61.8585 26.7806 62.0507 26.9514 62.1949 27.0796C62.3391 27.2077 62.4352 27.3358 62.5794 27.464C62.7236 27.6348 62.8678 27.8057 63.0601 27.9765C63.2043 28.1046 63.3004 28.2328 63.4446 28.4036C63.5888 28.5745 63.733 28.7453 63.8772 28.9162C63.9733 29.0443 64.1175 29.2152 64.2136 29.3433C64.3578 29.5141 64.502 29.685 64.6462 29.8558C64.7423 29.984 64.8865 30.1548 64.9826 30.283C65.1268 30.4538 65.223 30.6247 65.3672 30.7955C65.4633 30.9664 65.5594 31.0945 65.7036 31.2653C65.8478 31.4362 65.9439 31.607 66.0881 31.8206C66.1842 31.9915 66.2804 32.1196 66.3765 32.2904C66.4726 32.4613 66.6168 32.6321 66.713 32.8457C66.8091 33.0166 66.9052 33.1447 67.0013 33.3155C67.0975 33.4864 67.1936 33.6999 67.2897 33.8708C67.3858 34.0416 67.482 34.2125 67.53 34.3833C67.6262 34.5542 67.7223 34.7678 67.8184 34.9386C67.9146 35.1095 67.9626 35.2803 68.0587 35.4511C68.1549 35.622 68.251 35.8356 68.2991 36.0064C68.3952 36.1773 68.4433 36.3481 68.5394 36.519C68.6355 36.7325 68.6836 36.9034 68.7797 37.1169C68.8278 37.2878 68.9239 37.4586 68.972 37.6295C69.02 37.7149 69.02 37.8003 69.0681 37.8857L68.972 37.9285C57.9172 42.3278 48.3525 49.3326 41.3832 58.174C39.8451 60.3097 38.4513 62.3171 37.2016 64.3673ZM1.73031 26.5243C1.73031 26.3534 1.73031 26.1399 1.77837 25.969C1.77837 25.5846 1.82644 25.2002 1.82644 24.8158C1.82644 24.6022 1.8745 24.3887 1.8745 24.1324C1.92256 23.7907 1.92256 23.449 1.97063 23.1073C2.01869 22.851 2.01869 22.6375 2.06676 22.3812C2.11482 22.0395 2.16288 21.6978 2.21095 21.3988C2.25901 21.1426 2.30708 20.929 2.30708 20.6727C2.35514 20.331 2.4032 20.032 2.45127 19.6903C2.49933 19.4341 2.5474 19.2205 2.59546 18.9642C2.64352 18.6652 2.69159 18.3235 2.78772 18.0246C2.78772 17.7683 2.83578 17.512 2.88385 17.2985C2.93191 16.9995 3.02804 16.6578 3.0761 16.3588C3.12417 16.1025 3.22029 15.8462 3.26836 15.6327C3.36449 15.3337 3.41255 15.0347 3.50868 14.693C3.55674 14.4367 3.65287 14.1805 3.749 13.9669C3.84513 13.6679 3.94125 13.3689 4.03738 13.0699C4.13351 12.8137 4.18158 12.5574 4.2777 12.3438C4.37383 12.0448 4.46996 11.7459 4.56609 11.4469C4.66222 11.1906 4.75834 10.9343 4.85447 10.7208C4.9506 10.4218 5.04673 10.1228 5.19092 9.82381C5.28705 9.56754 5.38318 9.31126 5.47931 9.0977C5.57543 8.79872 5.71963 8.54245 5.81575 8.24346C5.91188 7.98719 6.05608 7.73091 6.1522 7.51735C6.2964 7.21837 6.39252 6.96209 6.53672 6.66311C6.63284 6.40683 6.77704 6.15056 6.87316 5.937C7.01736 5.68073 7.16155 5.38174 7.25768 5.12547C7.40187 4.86919 7.498 4.61292 7.64219 4.39936C7.78638 4.14309 7.93057 3.8441 8.07477 3.58783C8.21896 3.33155 8.36315 3.11799 8.50734 2.86172C8.65154 2.56273 8.74766 2.34917 8.84379 2.17832C8.98798 2.34917 9.13218 2.56273 9.27637 2.73358C9.32443 2.81901 9.42056 2.90443 9.46863 2.98986C9.66088 3.28884 9.85314 3.58783 10.0454 3.88681C10.0454 3.92952 10.0935 3.97224 10.0935 4.01495C10.2376 4.27122 10.3818 4.5275 10.526 4.78377C10.5741 4.86919 10.6222 4.99733 10.7183 5.08275C10.8144 5.29632 10.9586 5.46716 11.0547 5.68073C11.1028 5.80886 11.1989 5.937 11.247 6.06514C11.3431 6.23598 11.4393 6.44955 11.5354 6.6204C11.5834 6.74853 11.6796 6.87667 11.7276 7.00481C11.8238 7.17565 11.8718 7.38922 11.968 7.56006C12.016 7.6882 12.0641 7.81634 12.1602 7.98719C12.2563 8.15804 12.3044 8.3716 12.3525 8.54245C12.4005 8.67058 12.4486 8.84143 12.4967 8.96957C12.5447 9.14042 12.6409 9.35398 12.6889 9.52483C12.737 9.65296 12.785 9.82381 12.8331 9.95195C12.8812 10.1228 12.9292 10.3364 12.9773 10.5072C13.0254 10.6353 13.0734 10.8062 13.0734 10.9343C13.1215 11.1052 13.1696 11.3187 13.2176 11.4896C13.2657 11.6177 13.2657 11.7886 13.3138 11.9167C13.3618 12.0876 13.4099 12.3011 13.4099 12.472C13.4579 12.6001 13.4579 12.771 13.506 12.8991C13.5541 13.1127 13.5541 13.2835 13.6021 13.4971C13.6021 13.6252 13.6502 13.796 13.6502 13.9242C13.6983 14.1377 13.6983 14.3513 13.6983 14.5222C13.6983 14.6503 13.7463 14.7784 13.7463 14.9066C13.7463 15.1201 13.7944 15.3764 13.7944 15.59C13.7944 15.7181 13.7944 15.8035 13.7944 15.9317C13.7944 16.2734 13.7944 16.6151 13.7944 16.9568C13.7944 17.4266 13.7944 17.8537 13.7463 18.3235C13.7463 18.4944 13.6983 18.6225 13.6983 18.7934C13.6983 19.0924 13.6502 19.3913 13.6021 19.6903C13.6021 19.8612 13.5541 20.032 13.506 20.2456C13.4579 20.5019 13.4099 20.8009 13.3618 21.0571C13.3138 21.228 13.2657 21.4415 13.2657 21.6124C13.2176 21.8259 13.1696 22.0395 13.1215 22.2531C12.8812 22.4239 12.6889 22.5948 12.4486 22.7229C12.4005 22.7656 12.3044 22.8083 12.2563 22.8938C11.9199 23.15 11.5834 23.4063 11.2951 23.6626C11.1989 23.748 11.1028 23.7907 11.0547 23.8761C10.8144 24.0897 10.5741 24.2605 10.3818 24.4741C10.2857 24.5595 10.1415 24.6877 10.0454 24.7731C9.85314 24.9439 9.66088 25.1148 9.46863 25.2856C9.3725 25.4138 9.2283 25.4992 9.13218 25.6273C8.93992 25.7982 8.74766 25.969 8.55541 26.1826C8.45928 26.268 8.36315 26.3962 8.21896 26.4816C8.0267 26.6951 7.83445 26.9087 7.64219 27.1223C7.54606 27.2077 7.498 27.2931 7.40187 27.3785C7.11348 27.6775 6.87316 27.9765 6.63284 28.2755C6.58478 28.3182 6.53672 28.4036 6.48865 28.4463C6.2964 28.7026 6.05607 28.9589 5.86382 29.2152C5.76769 29.3433 5.71963 29.4287 5.6235 29.5569C5.47931 29.7704 5.28705 29.984 5.14286 30.1975C5.04673 30.3257 4.9506 30.4538 4.90254 30.582C4.75834 30.7955 4.61415 31.0091 4.46996 31.2226C4.37383 31.3508 4.32577 31.4789 4.22964 31.607C4.08545 31.8206 3.94126 32.0769 3.79706 32.2904C3.749 32.4186 3.65287 32.504 3.60481 32.6321C3.41255 32.9738 3.22029 33.2728 3.0761 33.6145C3.0761 33.6145 3.0761 33.6572 3.02804 33.6572C2.83578 33.9989 2.64352 34.3406 2.49933 34.725C2.45127 34.8532 2.4032 34.9386 2.35514 35.0667C2.25901 35.2376 2.16288 35.4084 2.11482 35.622C2.01869 35.0667 1.97063 34.5542 1.92256 33.9989C1.92256 33.8708 1.8745 33.7427 1.8745 33.6145C1.92256 33.0165 1.8745 32.4613 1.82644 31.9487V31.906C1.77837 31.3508 1.77837 30.8382 1.73031 30.283C1.73031 30.1548 1.73031 30.0267 1.73031 29.8986C1.73031 29.3433 1.68224 28.8308 1.68224 28.2755C1.68224 27.6775 1.68224 27.1223 1.73031 26.5243ZM11.6796 2.90443C11.8718 2.98986 12.016 3.07528 12.2083 3.1607C12.4967 3.33155 12.8331 3.45969 13.1215 3.63054C13.2657 3.71596 13.4099 3.75868 13.5541 3.8441C14.4192 4.31393 15.2844 4.82648 16.1015 5.33903C16.2457 5.42445 16.3418 5.50988 16.486 5.5953C16.7744 5.76615 17.0627 5.97971 17.3511 6.15056C17.4953 6.23598 17.6395 6.36412 17.7837 6.44955C18.024 6.6204 18.3124 6.79124 18.5527 7.00481C18.6969 7.13294 18.8411 7.21837 18.9853 7.3465C19.2256 7.51735 19.466 7.73091 19.7063 7.90176C19.8505 8.0299 19.9947 8.11532 20.1389 8.24346C20.3792 8.45702 20.6195 8.62787 20.8598 8.84143C21.004 8.96957 21.1001 9.05499 21.2443 9.18313C21.5327 9.4394 21.8211 9.69568 22.1095 9.90924C22.2056 9.99466 22.2537 10.0374 22.3498 10.1228C22.6862 10.4645 23.0708 10.7635 23.4072 11.1052C23.5033 11.1906 23.5514 11.2333 23.5995 11.3187C23.8878 11.575 24.1282 11.874 24.3685 12.1303C24.4646 12.2584 24.6088 12.3865 24.7049 12.5147C24.8972 12.7282 25.1375 12.9845 25.3298 13.1981C25.474 13.3262 25.5701 13.4971 25.7143 13.6252C25.9065 13.8388 26.0988 14.095 26.2911 14.3086C26.4352 14.4367 26.5314 14.6076 26.6756 14.7357C26.8678 14.9493 27.0601 15.2056 27.2043 15.4191C27.3004 15.5472 27.4446 15.7181 27.5407 15.8462C27.5888 15.8889 27.6368 15.9744 27.6849 16.0171C27.6368 16.0171 27.5888 16.0598 27.5407 16.0598C27.1081 16.1452 26.6275 16.2734 26.1949 16.3588C26.0988 16.4015 26.0027 16.4015 25.9546 16.4442C25.474 16.5723 24.9933 16.7005 24.5607 16.8286C24.4646 16.8713 24.3685 16.8713 24.2724 16.914C23.7917 17.0422 23.3591 17.213 22.8785 17.3412H22.8304C22.3498 17.512 21.9172 17.6829 21.4366 17.8537C21.3405 17.8964 21.2443 17.9391 21.1482 17.9818C20.7156 18.1527 20.235 18.3663 19.8024 18.5371C19.7543 18.5798 19.6582 18.6225 19.6101 18.6225C19.2256 18.7934 18.7931 19.0069 18.4085 19.1778C18.3124 19.2205 18.2644 19.2632 18.1682 19.3059C17.7356 19.5195 17.3031 19.733 16.8705 19.9893C16.7744 20.032 16.6782 20.0747 16.5821 20.1602C16.1495 20.4164 15.717 20.63 15.2844 20.929C15.3324 20.5873 15.3805 20.2456 15.4286 19.9039C15.4286 19.8612 15.4286 19.8185 15.4286 19.8185C15.4766 19.4341 15.5247 19.0069 15.5247 18.6225C15.5247 18.4944 15.5247 18.409 15.5247 18.2808C15.5247 17.8537 15.5728 17.3839 15.5728 16.9568C15.5728 16.6151 15.5728 16.2734 15.5728 15.8889C15.5728 15.7608 15.5728 15.6754 15.5728 15.5473C15.5728 15.291 15.5247 15.0774 15.5247 14.8211C15.5247 14.693 15.5247 14.5649 15.4766 14.4367C15.4766 14.2232 15.4286 14.0096 15.3805 13.7533C15.3805 13.6252 15.3324 13.4971 15.3324 13.3689C15.2844 13.1554 15.2844 12.8991 15.2363 12.6855C15.2363 12.5574 15.1883 12.4293 15.1883 12.3011C15.1402 12.0448 15.0921 11.7886 15.0441 11.4896C15.0441 11.4042 14.996 11.3187 14.996 11.276C14.8999 10.9343 14.8518 10.5926 14.7557 10.2509C14.7557 10.1655 14.7076 10.0801 14.6595 9.99466C14.6115 9.73839 14.5154 9.48211 14.4192 9.26855C14.3712 9.14042 14.3231 9.01228 14.3231 8.92686C14.275 8.71329 14.1789 8.49973 14.0828 8.28617C14.0347 8.15804 13.9866 8.0299 13.9386 7.90176C13.8425 7.6882 13.7944 7.47464 13.6983 7.26108C13.6502 7.13294 13.6021 7.00481 13.5541 6.91938C13.4579 6.70582 13.3618 6.49226 13.2657 6.23599C13.2176 6.15056 13.1696 6.02242 13.1215 5.937C12.9773 5.63801 12.8331 5.29632 12.6409 4.99733C12.6409 4.95462 12.5928 4.91191 12.5928 4.86919C12.4486 4.61292 12.3044 4.31393 12.1602 4.05766C12.1121 3.97224 12.016 3.8441 11.968 3.75868C11.8238 3.54511 11.7276 3.33155 11.5834 3.1607C11.5354 3.03257 11.4393 2.94714 11.3431 2.81901C11.2951 2.73358 11.247 2.64816 11.1509 2.52002C11.3431 2.73358 11.5354 2.81901 11.6796 2.90443ZM30.713 17.1276C30.9052 17.0849 31.0494 17.0849 31.2417 17.0422C31.6262 16.9995 31.9626 16.9568 32.3471 16.914C32.4913 16.914 32.6836 16.8713 32.8278 16.8713C33.2603 16.8286 33.6449 16.8286 34.0774 16.7859C34.2216 16.7859 34.3178 16.7859 34.4619 16.7859C35.5674 16.7432 36.6248 16.7432 37.7303 16.7859C37.8745 16.7859 37.9706 16.7859 38.1148 16.7859C38.4993 16.7859 38.9319 16.8286 39.3164 16.8713C39.5087 16.8713 39.6529 16.914 39.7971 16.914C40.1816 16.9568 40.518 16.9995 40.9025 17.0422C41.0948 17.0849 41.239 17.0849 41.4312 17.1276C41.5274 17.1276 41.6235 17.1703 41.7196 17.1703C41.6235 17.2985 41.5754 17.4266 41.4793 17.5547C41.3351 17.811 41.1909 18.0246 40.9987 18.2808C40.8064 18.5798 40.6142 18.8788 40.47 19.2205C40.3258 19.4768 40.1816 19.733 40.0374 19.9466C39.8451 20.2456 39.7009 20.5873 39.5567 20.8863C39.4126 21.1426 39.3164 21.3988 39.1722 21.6551C39.028 21.9968 38.8838 22.2958 38.6916 22.6375C38.5955 22.8938 38.4513 23.15 38.3551 23.4063C38.2109 23.748 38.0668 24.0897 37.9226 24.4314C37.8264 24.6877 37.7303 24.9012 37.6342 25.1575C37.49 25.4992 37.3939 25.8836 37.2497 26.2253C37.1535 26.4389 37.1055 26.6951 37.0093 26.9087C36.8652 27.2931 36.769 27.7202 36.6729 28.1046C36.6248 28.3182 36.5768 28.4891 36.4806 28.7026C36.3364 29.3006 36.1923 29.8986 36.0481 30.5392C35.9039 29.9413 35.7597 29.3006 35.6155 28.7026C35.5674 28.4891 35.5194 28.3182 35.4232 28.1046C35.3271 27.7202 35.231 27.3358 35.0868 26.9087C34.9907 26.6951 34.9426 26.4389 34.8465 26.2253C34.7023 25.8836 34.6061 25.4992 34.4619 25.1575C34.3658 24.9012 34.2697 24.6877 34.1736 24.4314C34.0294 24.0897 33.8852 23.748 33.741 23.4063C33.6449 23.15 33.5007 22.8938 33.4045 22.6375C33.2603 22.2958 33.1162 21.9968 32.9239 21.6551C32.7797 21.3988 32.6836 21.1426 32.5394 20.8863C32.3952 20.5873 32.2029 20.2456 32.0107 19.9466C31.8665 19.6903 31.7223 19.4341 31.5781 19.2205C31.3858 18.9215 31.1936 18.6225 31.0494 18.2808C30.9052 18.0246 30.761 17.811 30.5688 17.5547C30.4726 17.4266 30.4246 17.2985 30.3284 17.1703C30.5207 17.1703 30.6168 17.1276 30.713 17.1276ZM44.8919 15.5045C45.0841 15.291 45.2764 15.0347 45.4206 14.8211C45.5167 14.693 45.6609 14.5222 45.757 14.394C45.9493 14.1805 46.1415 13.9242 46.3338 13.7106C46.478 13.5825 46.5741 13.4116 46.7183 13.2835C46.9105 13.0699 47.1509 12.8137 47.3431 12.6001C47.4393 12.472 47.5834 12.3438 47.6796 12.2157C47.968 11.9167 48.2083 11.6604 48.4967 11.3615C48.5447 11.3187 48.5928 11.2333 48.6889 11.1906C49.0254 10.8489 49.3618 10.5072 49.7463 10.2082C49.8425 10.1228 49.9386 10.0374 50.0347 9.95195C50.275 9.69567 50.5634 9.48211 50.8037 9.26855C50.9479 9.14042 51.0441 9.05499 51.1883 8.92686C51.4286 8.71329 51.6689 8.54245 51.9092 8.32888C52.0534 8.20075 52.1976 8.11532 52.3418 7.98719C52.5821 7.81634 52.8224 7.60278 53.0628 7.43193C53.2069 7.30379 53.3511 7.21837 53.4953 7.09023C53.7356 6.91938 54.024 6.70582 54.2644 6.53497C54.4085 6.44955 54.5527 6.32141 54.6969 6.23599C54.9853 6.02242 55.3218 5.80886 55.6101 5.63801C55.7063 5.55259 55.8024 5.50988 55.9466 5.42445C56.3792 5.16818 56.7637 4.91191 57.1963 4.65563C57.2924 4.61292 57.3405 4.57021 57.4366 4.5275C57.773 4.31393 58.1095 4.14309 58.494 3.92952C58.6382 3.8441 58.7824 3.75868 58.9266 3.67325C59.215 3.5024 59.5033 3.37427 59.7917 3.20342C59.984 3.11799 60.1282 3.03257 60.3204 2.94714C60.4646 2.86172 60.6088 2.81901 60.753 2.73358C60.7049 2.81901 60.6569 2.90443 60.5607 2.98986C60.4646 3.11799 60.4166 3.20342 60.3204 3.33155C60.1762 3.54511 60.0801 3.71596 59.9359 3.92952C59.8878 4.01495 59.7917 4.14309 59.7437 4.22851C59.5995 4.48478 59.4553 4.74106 59.3111 4.99733C59.263 5.04004 59.263 5.12547 59.215 5.16818C59.0708 5.46716 58.8785 5.80886 58.7343 6.10785C58.6862 6.19327 58.6382 6.2787 58.5901 6.40683C58.494 6.6204 58.3979 6.87667 58.3017 7.09023C58.2537 7.21837 58.2056 7.3465 58.1575 7.43193C58.0614 7.64549 58.0134 7.85905 57.9172 8.07261C57.8692 8.20075 57.8211 8.32888 57.773 8.45702C57.6769 8.67058 57.6288 8.88414 57.5808 9.0977C57.5327 9.22584 57.4846 9.35398 57.4846 9.4394C57.3885 9.69568 57.3405 9.90924 57.2924 10.1655C57.2443 10.2509 57.2443 10.3364 57.1963 10.4218C57.1001 10.7635 57.004 11.1052 56.9559 11.4469C56.9559 11.5323 56.9079 11.575 56.9079 11.6604C56.8598 11.9167 56.8117 12.2157 56.7637 12.472C56.7637 12.6001 56.7156 12.7282 56.7156 12.8137C56.6676 13.0272 56.6195 13.2408 56.6195 13.4971C56.6195 13.6252 56.5714 13.7533 56.5714 13.8815C56.5234 14.095 56.5234 14.3086 56.4753 14.5222C56.4753 14.6503 56.4272 14.7784 56.4272 14.9066C56.4272 15.1628 56.3792 15.3764 56.3792 15.6327C56.3792 15.7608 56.3792 15.8462 56.3792 15.9744C56.3792 16.3161 56.3792 16.6578 56.3792 17.0422C56.3792 17.4693 56.3792 17.9391 56.4272 18.3663C56.4272 18.4944 56.4272 18.5798 56.4272 18.708C56.4753 19.1351 56.4753 19.5195 56.5234 19.9466C56.5234 19.9893 56.5234 20.032 56.5234 20.032C56.5714 20.3737 56.6195 20.7154 56.6676 21.0571C56.235 20.8009 55.8505 20.5446 55.4179 20.331C55.3218 20.2883 55.2256 20.2456 55.1295 20.1602C54.6969 19.9466 54.2644 19.6903 53.8798 19.4768C53.7837 19.4341 53.7356 19.3913 53.6395 19.3486C53.255 19.1351 52.8224 18.9642 52.4379 18.7934C52.3899 18.7507 52.2937 18.7507 52.2457 18.708C51.8131 18.4944 51.3805 18.3235 50.8999 18.1527C50.8037 18.11 50.7076 18.0673 50.6115 18.0246C50.1308 17.8537 49.6983 17.6829 49.2176 17.512H49.1696C48.737 17.3412 48.2563 17.213 47.7757 17.0849C47.6796 17.0422 47.5834 17.0422 47.4873 16.9995C47.1028 16.7859 46.6222 16.6578 46.1415 16.5296C46.0454 16.4869 45.9493 16.4869 45.9012 16.4869C45.4686 16.3588 45.036 16.2734 44.6035 16.1879C44.5554 16.1879 44.5073 16.1452 44.4593 16.1452C44.5073 16.1025 44.5554 16.0171 44.6035 15.9744C44.6515 15.8035 44.7957 15.6754 44.8919 15.5045ZM70.3178 29.8986C70.3178 30.0267 70.3178 30.1548 70.3178 30.3257C70.3178 30.8382 70.2697 31.3935 70.2216 31.906C70.2216 31.906 70.2216 31.906 70.2216 31.9487C70.1736 32.504 70.1255 33.0166 70.0774 33.5718C70.0774 33.6999 70.0294 33.8281 70.0294 33.9562C69.9813 34.4688 69.8852 34.9813 69.8371 35.5366V35.5793C69.741 35.4084 69.6929 35.2376 69.5968 35.1094C69.5487 34.9813 69.5007 34.8532 69.4045 34.7678C69.2603 34.4688 69.1161 34.1698 68.9239 33.8708C68.9239 33.8281 68.8758 33.7854 68.8758 33.7427C68.6836 33.401 68.4913 33.0593 68.2991 32.7176C68.251 32.6321 68.1549 32.504 68.1068 32.4186C67.9626 32.1623 67.8184 31.9487 67.6742 31.7352C67.5781 31.607 67.53 31.4789 67.4339 31.3508C67.2897 31.1372 67.1455 30.9237 67.0013 30.7101C66.9052 30.582 66.8091 30.4538 66.761 30.3257C66.6168 30.1121 66.4726 29.8986 66.2804 29.685C66.1842 29.5569 66.0881 29.4714 66.0401 29.3433C65.8478 29.087 65.6555 28.8735 65.4633 28.6172C65.4152 28.5318 65.3672 28.4891 65.271 28.4036C65.0307 28.1046 64.7423 27.8057 64.502 27.5067C64.4059 27.4212 64.3578 27.3358 64.2617 27.2504C64.0694 27.0368 63.8772 26.8233 63.6368 26.6097C63.5407 26.4816 63.4446 26.3962 63.3004 26.3107C63.1081 26.1399 62.9159 25.9263 62.7236 25.7555C62.6275 25.6273 62.4833 25.5419 62.3872 25.4138C62.1949 25.2429 62.0027 25.0721 61.8104 24.9012C61.7143 24.8158 61.5701 24.6877 61.474 24.6022C61.2336 24.3887 61.0414 24.2178 60.8011 24.047C60.7049 23.9616 60.6088 23.8761 60.5127 23.8334C60.1762 23.5771 59.8879 23.3209 59.5514 23.0646C59.5033 23.0219 59.4072 22.9792 59.3591 22.8938C59.1188 22.7229 58.9266 22.5521 58.6862 22.4239C58.6382 22.2104 58.5901 21.9968 58.5421 21.7832C58.494 21.6124 58.4459 21.3988 58.4459 21.228C58.3979 20.9717 58.3498 20.6727 58.3017 20.4164C58.2537 20.2456 58.2537 20.0747 58.2056 19.8612C58.1575 19.5622 58.1575 19.2632 58.1095 18.9642C58.1095 18.7934 58.0614 18.6652 58.0614 18.4944C58.0134 18.0246 58.0134 17.5974 58.0134 17.1276C58.0134 16.7859 58.0134 16.4442 58.0134 16.1025C58.0134 15.9744 58.0134 15.8889 58.0134 15.7608C58.0134 15.5473 58.0614 15.291 58.0614 15.0774C58.0614 14.9493 58.1095 14.8211 58.1095 14.693C58.1095 14.4794 58.1575 14.2659 58.1575 14.095C58.1575 13.9669 58.2056 13.796 58.2056 13.6679C58.2537 13.4544 58.2537 13.2835 58.3017 13.0699C58.3498 12.9418 58.3498 12.771 58.3979 12.6428C58.4459 12.472 58.494 12.2584 58.494 12.0876C58.5421 11.9594 58.5421 11.7886 58.5901 11.6604C58.6382 11.4896 58.6862 11.276 58.7343 11.1052C58.7824 10.977 58.8304 10.8062 58.8304 10.6781C58.8785 10.5072 58.9266 10.2936 58.9746 10.1228C59.0227 9.99466 59.0708 9.82381 59.1188 9.69568C59.1669 9.52483 59.263 9.35398 59.3111 9.14042C59.3591 9.01228 59.4072 8.84143 59.4553 8.71329C59.5033 8.54245 59.5995 8.3716 59.6475 8.20075C59.6956 8.07261 59.7437 7.90176 59.8398 7.77363C59.9359 7.60278 59.984 7.43193 60.0801 7.26108C60.1282 7.13294 60.2243 7.00481 60.2724 6.83396C60.3685 6.66311 60.4646 6.49226 60.5607 6.2787C60.6088 6.15056 60.7049 6.02242 60.753 5.89429C60.8491 5.72344 60.9453 5.50988 61.0414 5.33903C61.0895 5.21089 61.1856 5.08276 61.2336 4.99733C61.3298 4.78377 61.474 4.61292 61.5701 4.39936C61.6182 4.31393 61.7143 4.1858 61.7624 4.10037C61.9546 3.8441 62.0988 3.54511 62.2911 3.28884C62.2911 3.24613 62.3391 3.24613 62.3391 3.20342C62.5314 2.90443 62.7236 2.64816 62.9159 2.39188C63.012 2.56273 63.1562 2.77629 63.2523 2.94714C63.3965 3.20342 63.5407 3.41698 63.6849 3.67325C63.8291 3.92952 63.9733 4.22851 64.1175 4.48478C64.2617 4.74106 64.3578 4.95462 64.502 5.21089C64.6462 5.46716 64.7904 5.76615 64.8865 6.02242C64.9826 6.2787 65.1268 6.49226 65.223 6.74853C65.3672 7.04752 65.4633 7.30379 65.6075 7.60278C65.7036 7.85905 65.8478 8.11532 65.9439 8.32888C66.0881 8.62787 66.1842 8.88414 66.2804 9.18313C66.3765 9.4394 66.4726 9.69568 66.5688 9.90924C66.6649 10.2082 66.8091 10.5072 66.9052 10.8062C67.0013 11.0625 67.0975 11.3187 67.1936 11.5323C67.2897 11.8313 67.3858 12.1303 67.482 12.4293C67.5781 12.6855 67.6262 12.9418 67.7223 13.1554C67.8184 13.4544 67.9146 13.7533 68.0107 14.0523C68.1068 14.3086 68.1549 14.5649 68.251 14.8211C68.3471 15.1201 68.3952 15.4191 68.4913 15.7608C68.5394 16.0171 68.6355 16.2734 68.6836 16.4869C68.7797 16.7859 68.8278 17.1276 68.8758 17.4266C68.9239 17.6829 68.972 17.9391 69.02 18.1527C69.0681 18.4517 69.1642 18.7934 69.2123 19.0924C69.2603 19.3486 69.3084 19.6049 69.3565 19.8185C69.4045 20.1602 69.4526 20.4592 69.5007 20.8009C69.5487 21.0571 69.5968 21.2707 69.5968 21.527C69.6449 21.8687 69.6929 22.1676 69.6929 22.5093C69.741 22.7656 69.741 22.9792 69.7891 23.2355C69.8371 23.5772 69.8371 23.9188 69.8852 24.2605C69.8852 24.4741 69.9332 24.7304 69.9332 24.9439C69.9813 25.3284 69.9813 25.7128 69.9813 26.0972C69.9813 26.268 69.9813 26.4816 70.0294 26.6524C70.0294 27.2077 70.0774 27.8057 70.0774 28.3609C70.3178 28.788 70.3178 29.3433 70.3178 29.8986ZM50.996 68.8094C47.4873 71.842 43.5461 74.4901 39.3645 76.7539C38.1629 77.3946 37.1055 77.9071 36.0481 78.4196C34.8945 77.9071 33.7891 77.3518 32.7316 76.7966C28.5501 74.5755 24.6569 71.9274 21.1001 68.8948C11.8238 60.9076 5.57543 50.8703 2.97997 39.7224C3.22029 39.8078 3.46061 39.9359 3.749 40.0214C4.08545 40.1495 4.37383 40.2776 4.71028 40.4485C5.04673 40.6193 5.38318 40.7475 5.71963 40.9183C6.05607 41.0465 6.34446 41.2173 6.68091 41.3454C7.01736 41.5163 7.35381 41.6871 7.69025 41.8153C7.97864 41.9861 8.31509 42.1143 8.60347 42.2851C8.93992 42.456 9.27637 42.6268 9.56475 42.7976C9.85314 42.9685 10.1415 43.1394 10.478 43.2675C10.8144 43.4383 11.1028 43.6519 11.4393 43.8227C11.7276 43.9936 12.016 44.1644 12.3044 44.3353C12.6409 44.5061 12.9292 44.7197 13.2657 44.9333C13.5541 45.1041 13.8425 45.275 14.1308 45.4458C14.4192 45.6594 14.7557 45.8729 15.0441 46.0438C15.3324 46.2146 15.6208 46.4282 15.8611 46.599C16.1495 46.8126 16.486 47.0262 16.7744 47.2397C17.0628 47.4106 17.3031 47.6241 17.5915 47.795C17.8798 48.0085 18.1682 48.2648 18.4566 48.4784C18.6969 48.6919 18.9853 48.8628 19.2256 49.0763C19.514 49.2899 19.8024 49.5462 20.0908 49.8025C20.3311 50.016 20.5714 50.1869 20.8117 50.4004C21.1001 50.6567 21.3885 50.913 21.6769 51.1265C21.9172 51.3401 22.1575 51.5537 22.3979 51.7672C22.6862 52.0235 22.9746 52.2798 23.215 52.536C23.4553 52.7496 23.6475 52.9632 23.8879 53.1767C24.1762 53.433 24.4166 53.732 24.7049 53.9883C24.8972 54.2018 25.1375 54.4154 25.3298 54.6289C25.6182 54.9279 25.9065 55.2269 26.1469 55.5259C26.3391 55.7395 26.5314 55.9103 26.7236 56.1239C27.012 56.4656 27.3004 56.8073 27.5888 57.1062C27.733 57.2771 27.9252 57.4479 28.0694 57.6615C28.502 58.1741 28.9346 58.6866 29.3191 59.1992L29.3672 59.2419C29.6555 59.5836 29.9439 59.968 30.1842 60.3524C31.0013 61.4629 31.8184 62.5734 32.5394 63.7266C33.5487 65.2643 34.4139 66.8446 35.279 68.425C35.4232 68.6813 35.7116 68.8521 36.0481 68.8521C36.1442 68.8521 36.2884 68.8094 36.3845 68.7667C36.5768 68.6813 36.721 68.5531 36.8171 68.3823C38.4513 65.1789 40.47 62.1036 42.777 59.1992C43.2096 58.6866 43.6422 58.1313 44.0748 57.6188C44.219 57.4479 44.3632 57.2771 44.5554 57.1062C44.8438 56.7645 45.1322 56.4229 45.4686 56.0812C45.6609 55.8676 45.8531 55.6967 46.0454 55.4832C46.3338 55.1842 46.6222 54.8852 46.8625 54.5862C47.0547 54.3727 47.2951 54.1591 47.4873 53.9455C47.7757 53.6893 48.016 53.3903 48.3044 53.134C48.5447 52.9204 48.737 52.7069 48.9773 52.4933C49.2657 52.2371 49.506 51.9808 49.7944 51.7245C50.0347 51.5109 50.275 51.2974 50.5154 51.0838C50.8037 50.8275 51.0921 50.614 51.3324 50.3577C51.5728 50.1442 51.8131 49.9306 52.1015 49.717C52.3899 49.5035 52.6782 49.2472 52.9666 49.0336C53.2069 48.8201 53.4953 48.6492 53.7356 48.4357C54.024 48.2221 54.3124 48.0085 54.6008 47.795C54.8892 47.5814 55.1295 47.4106 55.4179 47.197C55.7063 46.9834 55.9947 46.7699 56.283 46.5563C56.5714 46.3855 56.8598 46.1719 57.1001 46.0011C57.3885 45.7875 57.6769 45.6167 58.0134 45.4031C58.3017 45.2323 58.5901 45.0614 58.8785 44.8478C59.1669 44.677 59.5033 44.4634 59.7917 44.2926C60.0801 44.1217 60.3685 43.9509 60.6569 43.78C60.9933 43.6092 61.2817 43.3956 61.6182 43.2248C61.9065 43.0539 62.1949 42.8831 62.5314 42.7549C62.8678 42.5841 63.1562 42.4132 63.4927 42.2424C63.781 42.0715 64.1175 41.9434 64.4059 41.7726C64.7423 41.6017 65.0788 41.4309 65.4152 41.3027C65.7036 41.1746 66.0401 41.0037 66.3284 40.8756C66.6649 40.7048 67.0013 40.5766 67.3378 40.4058C67.6742 40.2776 67.9626 40.1495 68.2991 39.9786C68.5394 39.8932 68.7797 39.7651 68.972 39.6797C66.4246 50.8703 60.1762 60.9076 50.996 68.8094Z" fill="white"/>
</svg>
