<svg width="24" height="24" viewBox="0 0 24 24" fill="none" xmlns="http://www.w3.org/2000/svg">
<path d="M5.60865 4.86693L15.1763 2.25536L14.6696 1.23122C14.3381 0.565522 13.5296 0.29062 12.8639 0.622119L4.29883 4.86693H5.60865Z" fill="#287BFF"/>
<path d="M18.1467 2.33105C18.0281 2.33105 17.9095 2.34723 17.7909 2.37957L15.5432 2.99405L8.67871 4.86715H16.4703H19.8661L19.4457 3.32555C19.284 2.72454 18.7396 2.33105 18.1467 2.33105Z" fill="#287BFF"/>
<path d="M21.2698 5.81055H20.9626H20.5449H20.1271H16.9388H5.22313H3.68692H2.39326H2.1534H1.35025C0.924424 5.81055 0.544413 6.00729 0.296463 6.31723C0.183268 6.46007 0.0970242 6.62447 0.0485121 6.80504C0.0188658 6.91824 0 7.03682 0 7.1581V7.31981V8.85603V22.1726C0 22.9165 0.603706 23.5201 1.34756 23.5201H21.2672C22.011 23.5201 22.6147 22.9165 22.6147 22.1726V18.4129H14.6183C13.3543 18.4129 12.3275 17.3861 12.3275 16.1221V14.8877V14.47V14.0522V13.1251C12.3275 12.5052 12.5754 11.942 12.977 11.5296C13.3327 11.163 13.8098 10.9151 14.3434 10.8531C14.4323 10.8424 14.524 10.8369 14.6156 10.8369H21.4935H21.9113H22.329H22.6147V7.1581C22.6174 6.41425 22.0137 5.81055 21.2698 5.81055Z" fill="#287BFF"/>
<path d="M23.5604 12.1255C23.4257 12.0015 23.2667 11.9072 23.0888 11.8452C22.9513 11.7994 22.8058 11.7725 22.6522 11.7725H22.6171H22.5902H22.1724H20.6659H14.6181C13.8742 11.7725 13.2705 12.3761 13.2705 13.12V13.7911V14.2088V14.6266V16.1197C13.2705 16.8635 13.8742 17.4672 14.6181 17.4672H22.6171H22.6522C22.8058 17.4672 22.9513 17.4403 23.0888 17.3944C23.2667 17.3352 23.4257 17.2381 23.5604 17.1142C23.8299 16.8689 23.9997 16.5131 23.9997 16.1197V13.12C23.9997 12.7265 23.8299 12.3707 23.5604 12.1255ZM17.4318 14.888C17.4318 15.2599 17.1299 15.5618 16.758 15.5618H16.3106C15.9387 15.5618 15.6368 15.2599 15.6368 14.888V14.4406C15.6368 14.225 15.7365 14.0336 15.8955 13.9123C16.0114 13.8234 16.1543 13.7668 16.3106 13.7668H16.4238H16.758C17.1299 13.7668 17.4318 14.0686 17.4318 14.4406V14.888Z" fill="#287BFF"/>
</svg>
